<svg id="Logos" xmlns="http://www.w3.org/2000/svg" xmlns:xlink="http://www.w3.org/1999/xlink" width="254.6" height="150" viewBox="0 0 254.6 150"><defs><style>.cls-1{fill:#fff;}.cls-2{fill:url(#linear-gradient);}.cls-3{fill:url(#linear-gradient-2);}</style><linearGradient id="linear-gradient" x1="55.29" y1="50.91" x2="40.58" y2="66.08" gradientUnits="userSpaceOnUse"><stop offset="0.18" stop-color="#fff" stop-opacity="0.4"/><stop offset="1" stop-color="#fff"/></linearGradient><linearGradient id="linear-gradient-2" x1="38.65" y1="68.74" x2="21.64" y2="85.29" xlink:href="#linear-gradient"/></defs><title>jira-logo-gradient-white</title><path class="cls-1" d="M70.64,33.12H36.05A15.61,15.61,0,0,0,51.66,48.73H58v6.15a15.6,15.6,0,0,0,15.61,15.6V36.12A3,3,0,0,0,70.64,33.12Z"/><path class="cls-2" d="M53,50.85H18.44A15.61,15.61,0,0,0,34,66.46h6.37V72.6A15.61,15.61,0,0,0,56,88.21V53.85A3,3,0,0,0,53,50.85Z"/><path class="cls-3" d="M35.4,68.58H.82A15.61,15.61,0,0,0,16.43,84.19H22.8v6.14a15.61,15.61,0,0,0,15.6,15.61V71.58A3,3,0,0,0,35.4,68.58Z"/><path class="cls-1" d="M109.87,42.62h7.92V82.84c0,10.64-4.67,18-15.58,18a28.17,28.17,0,0,1-9.5-1.5V91.64a22.38,22.38,0,0,0,8.18,1.49c6.69,0,9-4,9-9.77Z"/><path class="cls-1" d="M132.22,39.54a4.94,4.94,0,0,1,5.28,5.28,5.28,5.28,0,0,1-10.56,0A4.94,4.94,0,0,1,132.22,39.54Zm-3.87,16.9h7.57v44h-7.57Z"/><path class="cls-1" d="M154.75,100.44h-7.39v-44h7.39v7.74c2.55-5.19,6.95-8.89,15.57-8.36v7.39c-9.68-1-15.57,1.94-15.57,11.27Z"/><path class="cls-1" d="M205.79,92.52c-2.82,5.8-8.1,8.8-14.87,8.8-11.71,0-17.6-9.95-17.6-22.88,0-12.41,6.15-22.88,18.48-22.88,6.42,0,11.35,2.9,14,8.62V56.44h7.56v44h-7.56Zm-12.85,1.76c6.78,0,12.85-4.32,12.85-14.08V76.68c0-9.77-5.55-14.08-12-14.08-8.54,0-12.94,5.63-12.94,15.84C180.88,89,185.11,94.28,192.94,94.28Z"/></svg>