<svg id="Logos" xmlns="http://www.w3.org/2000/svg" xmlns:xlink="http://www.w3.org/1999/xlink" width="80" height="80" viewBox="0 0 80 80"><defs><style>.cls-1{fill:#ebecf0;}.cls-2{fill:url(#linear-gradient);}.cls-3{fill:url(#linear-gradient-2);}</style><linearGradient id="linear-gradient" x1="57.89" y1="61.5" x2="33.07" y2="47.24" gradientUnits="userSpaceOnUse"><stop offset="0" stop-color="#0052cc"/><stop offset="0.92" stop-color="#2380fb"/><stop offset="1" stop-color="#2684ff"/></linearGradient><linearGradient id="linear-gradient-2" x1="14048.11" y1="1012.47" x2="14023.29" y2="998.21" gradientTransform="translate(14070.27 1031.05) rotate(180)" xlink:href="#linear-gradient"/></defs><title>confluence-icon-contained-gradient-blue</title><rect class="cls-1" width="80" height="80"/><path class="cls-2" d="M21.63,50.07c-.41.66-.87,1.44-1.23,2.06a1.26,1.26,0,0,0,.42,1.71L29,58.91a1.26,1.26,0,0,0,1.75-.43l1.21-2c3.25-5.36,6.52-4.71,12.41-1.91l8.13,3.87a1.27,1.27,0,0,0,1.7-.63L58.13,49a1.27,1.27,0,0,0-.62-1.65c-1.72-.81-5.13-2.42-8.19-3.9C38.22,38,28.82,38.39,21.63,50.07Z"/><path class="cls-3" d="M58.41,30c.41-.66.88-1.44,1.24-2.06a1.25,1.25,0,0,0-.43-1.71L51,21.18a1.26,1.26,0,0,0-1.75.43c-.32.55-.74,1.26-1.21,2-3.25,5.36-6.52,4.71-12.41,1.91l-8.13-3.87a1.27,1.27,0,0,0-1.7.63l-3.9,8.82a1.25,1.25,0,0,0,.61,1.65c1.72.81,5.14,2.42,8.19,3.9C41.83,42.06,51.23,41.7,58.41,30Z"/></svg>