<svg id="Logos" xmlns="http://www.w3.org/2000/svg" xmlns:xlink="http://www.w3.org/1999/xlink" width="80" height="80" viewBox="0 0 80 80"><defs><style>.cls-1{fill:#ebecf0;}.cls-2{fill:#2684ff;}.cls-3{fill:url(#New_Gradient_Swatch_1);}.cls-4{fill:url(#New_Gradient_Swatch_1-2);}</style><linearGradient id="New_Gradient_Swatch_1" x1="50.61" y1="29.18" x2="42" y2="38.05" gradientUnits="userSpaceOnUse"><stop offset="0.18" stop-color="#0052cc"/><stop offset="1" stop-color="#2684ff"/></linearGradient><linearGradient id="New_Gradient_Swatch_1-2" x1="41.17" y1="39.31" x2="31.22" y2="48.99" xlink:href="#New_Gradient_Swatch_1"/></defs><title>jira-icon-contained-gradient-blue</title><rect class="cls-1" width="80" height="80"/><path class="cls-2" d="M59.29,19.07H39.06a9.12,9.12,0,0,0,9.13,9.12h3.73v3.6A9.12,9.12,0,0,0,61,40.92V20.82A1.75,1.75,0,0,0,59.29,19.07Z"/><path class="cls-3" d="M49.28,29.14H29.05a9.13,9.13,0,0,0,9.13,9.13h3.73v3.59A9.12,9.12,0,0,0,51,51V30.9A1.75,1.75,0,0,0,49.28,29.14Z"/><path class="cls-4" d="M39.27,39.22H19a9.13,9.13,0,0,0,9.13,9.13H31.9v3.59A9.12,9.12,0,0,0,41,61.07V41A1.75,1.75,0,0,0,39.27,39.22Z"/></svg>