<svg id="Logos" xmlns="http://www.w3.org/2000/svg" xmlns:xlink="http://www.w3.org/1999/xlink" width="80" height="80" viewBox="0 0 80 80"><defs><style>.cls-1{fill:url(#linear-gradient);}.cls-2{fill:url(#linear-gradient-2);}</style><linearGradient id="linear-gradient" x1="69.82" y1="75.84" x2="28.45" y2="52.07" gradientUnits="userSpaceOnUse"><stop offset="0" stop-color="#fff" stop-opacity="0.4"/><stop offset="1" stop-color="#fff"/></linearGradient><linearGradient id="linear-gradient-2" x1="10629.55" y1="2692.29" x2="10588.19" y2="2668.52" gradientTransform="translate(10639.83 2696.54) rotate(180)" gradientUnits="userSpaceOnUse"><stop offset="0" stop-color="#fff" stop-opacity="0.5"/><stop offset="1" stop-color="#fff"/></linearGradient></defs><title>confluence-icon-gradient-white_1</title><path class="cls-1" d="M9.39,56.77c-.68,1.12-1.45,2.42-2.05,3.44A2.11,2.11,0,0,0,8,63.07l13.67,8.44a2.11,2.11,0,0,0,2.92-.72c.54-.92,1.24-2.1,2-3.37,5.42-8.94,10.87-7.85,20.69-3.19l13.55,6.45a2.11,2.11,0,0,0,2.83-1.05l6.51-14.7a2.1,2.1,0,0,0-1-2.75c-2.86-1.35-8.55-4-13.65-6.5C37,36.71,21.37,37.31,9.39,56.77Z"/><path class="cls-2" d="M70.69,23.31c.69-1.11,1.46-2.41,2.06-3.43a2.11,2.11,0,0,0-.7-2.86L58.38,8.58a2.1,2.1,0,0,0-2.92.72c-.54.92-1.24,2.1-2,3.37C48,21.61,42.58,20.52,32.76,15.86L19.21,9.41a2.11,2.11,0,0,0-2.83,1.05L9.87,25.16a2.1,2.1,0,0,0,1,2.75c2.86,1.35,8.55,4,13.64,6.5C43.06,43.38,58.72,42.78,70.69,23.31Z"/></svg>