<svg id="Logos" xmlns="http://www.w3.org/2000/svg" xmlns:xlink="http://www.w3.org/1999/xlink" width="80" height="80" viewBox="0 0 80 80"><defs><style>.cls-1{fill:#0052cc;}.cls-2{fill:#fff;}.cls-3{fill:url(#linear-gradient);}.cls-4{fill:url(#linear-gradient-2);}</style><linearGradient id="linear-gradient" x1="50.63" y1="29.18" x2="42.02" y2="38.05" gradientUnits="userSpaceOnUse"><stop offset="0.18" stop-color="#fff" stop-opacity="0.4"/><stop offset="1" stop-color="#fff"/></linearGradient><linearGradient id="linear-gradient-2" x1="41.19" y1="39.31" x2="31.24" y2="48.99" xlink:href="#linear-gradient"/></defs><title>jira-icon-contained-gradient-white</title><rect class="cls-1" width="80" height="80"/><path class="cls-2" d="M59.31,19.07H39.09a9.12,9.12,0,0,0,9.12,9.12h3.73v3.6a9.13,9.13,0,0,0,9.13,9.13V20.82A1.75,1.75,0,0,0,59.31,19.07Z"/><path class="cls-3" d="M49.3,29.14H29.08a9.12,9.12,0,0,0,9.12,9.13h3.73v3.59A9.13,9.13,0,0,0,51.06,51V30.9A1.76,1.76,0,0,0,49.3,29.14Z"/><path class="cls-4" d="M39.29,39.22H19.07a9.12,9.12,0,0,0,9.12,9.13h3.73v3.59a9.13,9.13,0,0,0,9.13,9.13V41A1.75,1.75,0,0,0,39.29,39.22Z"/></svg>