<svg id="Logos" xmlns="http://www.w3.org/2000/svg" xmlns:xlink="http://www.w3.org/1999/xlink" width="80" height="80" viewBox="0 0 80 80"><defs><style>.cls-1{fill:#fff;}.cls-2{fill:url(#linear-gradient);}.cls-3{fill:url(#linear-gradient-2);}</style><linearGradient id="linear-gradient" x1="57.67" y1="21.92" x2="43.33" y2="36.7" gradientUnits="userSpaceOnUse"><stop offset="0.18" stop-color="#fff" stop-opacity="0.4"/><stop offset="1" stop-color="#fff"/></linearGradient><linearGradient id="linear-gradient-2" x1="41.94" y1="38.81" x2="25.36" y2="54.94" xlink:href="#linear-gradient"/></defs><title>jira-icon-gradient-white</title><path class="cls-1" d="M72.14,5.07H38.43A15.22,15.22,0,0,0,53.65,20.28h6.2v6A15.22,15.22,0,0,0,75.07,41.48V8A2.93,2.93,0,0,0,72.14,5.07Z"/><path class="cls-2" d="M55.46,21.86H21.75A15.21,15.21,0,0,0,37,37.07h6.21v6A15.22,15.22,0,0,0,58.38,58.28V24.78A2.92,2.92,0,0,0,55.46,21.86Z"/><path class="cls-3" d="M38.78,38.65H5.07A15.21,15.21,0,0,0,20.28,53.86h6.21v6A15.21,15.21,0,0,0,41.7,75.07V41.58A2.93,2.93,0,0,0,38.78,38.65Z"/></svg>