<svg id="Logos" xmlns="http://www.w3.org/2000/svg" xmlns:xlink="http://www.w3.org/1999/xlink" width="254.6" height="150" viewBox="0 0 254.6 150"><defs><style>.cls-1{fill:#505f79;}.cls-2{fill:#7a869a;}.cls-3{fill:url(#New_Gradient_Swatch_4);}.cls-4{fill:url(#New_Gradient_Swatch_4-2);}</style><linearGradient id="New_Gradient_Swatch_4" x1="55.29" y1="50.91" x2="40.58" y2="66.08" gradientUnits="userSpaceOnUse"><stop offset="0.18" stop-color="#344563"/><stop offset="1" stop-color="#7a869a"/></linearGradient><linearGradient id="New_Gradient_Swatch_4-2" x1="39.15" y1="68.24" x2="22.14" y2="84.79" xlink:href="#New_Gradient_Swatch_4"/></defs><title>jira-logo-gradient-neutral</title><path class="cls-1" d="M109.87,42.62h7.92V82.84c0,10.64-4.67,18-15.58,18a28.17,28.17,0,0,1-9.5-1.5V91.64a22.38,22.38,0,0,0,8.18,1.49c6.69,0,9-4,9-9.77Z"/><path class="cls-1" d="M132.22,39.54a4.94,4.94,0,0,1,5.28,5.28,5.28,5.28,0,0,1-10.56,0A4.94,4.94,0,0,1,132.22,39.54Zm-3.87,16.9h7.57v44h-7.57Z"/><path class="cls-1" d="M154.75,100.44h-7.39v-44h7.39v7.74c2.55-5.19,6.95-8.89,15.57-8.36v7.39c-9.68-1-15.57,1.94-15.57,11.27Z"/><path class="cls-1" d="M205.79,92.52c-2.82,5.8-8.1,8.8-14.87,8.8-11.71,0-17.6-9.95-17.6-22.88,0-12.41,6.15-22.88,18.48-22.88,6.42,0,11.35,2.9,14,8.62V56.44h7.56v44h-7.56Zm-12.85,1.76c6.78,0,12.85-4.32,12.85-14.08V76.68c0-9.77-5.55-14.08-12-14.08-8.54,0-12.94,5.63-12.94,15.84C180.88,89,185.11,94.28,192.94,94.28Z"/><path class="cls-2" d="M70.14,33.62H35.55A15.61,15.61,0,0,0,51.16,49.23h6.37v6.15A15.6,15.6,0,0,0,73.14,71V36.62A3,3,0,0,0,70.14,33.62Z"/><path class="cls-3" d="M53,50.85H18.44A15.61,15.61,0,0,0,34,66.46h6.37V72.6A15.61,15.61,0,0,0,56,88.21V53.85A3,3,0,0,0,53,50.85Z"/><path class="cls-4" d="M35.9,68.08H1.32A15.61,15.61,0,0,0,16.93,83.69H23.3v6.14a15.61,15.61,0,0,0,15.6,15.61V71.08A3,3,0,0,0,35.9,68.08Z"/></svg>