<svg id="Logos" xmlns="http://www.w3.org/2000/svg" xmlns:xlink="http://www.w3.org/1999/xlink" width="542.79" height="150" viewBox="0 0 542.79 150"><defs><style>.cls-1{fill:#505f79;}.cls-2{fill:url(#linear-gradient);}.cls-3{fill:url(#linear-gradient-2);}</style><linearGradient id="linear-gradient" x1="65.61" y1="105.54" x2="26.28" y2="82.94" gradientUnits="userSpaceOnUse"><stop offset="0" stop-color="#344563"/><stop offset="0.68" stop-color="#637088"/><stop offset="1" stop-color="#7a869a"/></linearGradient><linearGradient id="linear-gradient-2" x1="12580.3" y1="11970.4" x2="12540.97" y2="11947.8" gradientTransform="translate(12589.3 12007.92) rotate(180)" xlink:href="#linear-gradient"/></defs><title>confluence-logo-gradient-neutral</title><path class="cls-1" d="M140.4,97.9c-3.6,2.38-9.32,3.43-15.31,3.43-19,0-29.74-11.44-29.74-29.65,0-17.6,10.74-29.92,29.57-29.92,5.63,0,11.26,1.06,15.4,4.05v7.65c-4.14-2.64-8.72-4-15.4-4-13.56,0-21.65,9-21.65,22.26s8.36,22.09,22.09,22.09a32.46,32.46,0,0,0,15-3.52Z"/><path class="cls-1" d="M146,78.37c0-13.2,7.74-22.79,20.94-22.79s20.77,9.59,20.77,22.79-7.66,23-20.77,23S146,91.57,146,78.37Zm7.39,0c0,8.36,4.14,15.92,13.55,15.92s13.38-7.56,13.38-15.92-4.05-15.75-13.38-15.75S153.34,70,153.34,78.37Z"/><path class="cls-1" d="M233.86,100.45h-7.57V73.88c0-7.92-3.17-11.44-10.38-11.44-7,0-11.88,4.66-11.88,13.55v24.46h-7.57v-44H204v7.21a15.41,15.41,0,0,1,13.9-8.09c10.12,0,15.93,7,15.93,19.09Z"/><path class="cls-1" d="M254.89,56.46h11.35v7H254.89v37H247.5v-37h-7.13v-7h7.13V51.62c0-8.19,4.58-13.73,14-13.73a18.22,18.22,0,0,1,5.1.7v6.95a25.28,25.28,0,0,0-4.75-.44c-4.66,0-6.95,2.73-6.95,6.69Z"/><path class="cls-1" d="M286.22,100.72c-7.22,0-11.79-3.43-11.79-11.53V38.06H282V88.31c0,4,2.64,5.37,5.9,5.37a18.73,18.73,0,0,0,2.2-.09v6.78A16.49,16.49,0,0,1,286.22,100.72Z"/><path class="cls-1" d="M296.51,56.46h7.57V83c0,7.92,3.17,11.44,10.38,11.44,7,0,11.88-4.66,11.88-13.55V56.46h7.57v44h-7.57V93.24a15.41,15.41,0,0,1-13.9,8.09c-10.12,0-15.93-7-15.93-19.09Z"/><path class="cls-1" d="M366.38,101.33c-16.45,0-23.67-9.5-23.67-23,0-13.29,7.39-22.79,20.77-22.79,13.55,0,19,9.41,19,22.79V81.8H350.37c1.06,7.48,5.89,12.32,16.28,12.32A38.92,38.92,0,0,0,380,91.74v7C376.42,100.63,370.87,101.33,366.38,101.33Zm-16.1-26h24.55c-.44-8.19-4.13-12.85-11.7-12.85C355.12,62.44,351.07,67.63,350.28,75.29Z"/><path class="cls-1" d="M428.86,100.45H421.3V73.88c0-7.92-3.17-11.44-10.39-11.44-7,0-11.88,4.66-11.88,13.55v24.46h-7.57v-44H399v7.21a15.43,15.43,0,0,1,13.91-8.09c10.11,0,15.92,7,15.92,19.09Z"/><path class="cls-1" d="M470.49,99.31c-2.64,1.41-6.69,2-10.74,2-15.66,0-23-9.5-23-23,0-13.29,7.31-22.79,23-22.79a23.17,23.17,0,0,1,10.47,2.11v7a22.13,22.13,0,0,0-9.94-2.11c-11.44,0-16.1,7.21-16.1,15.75s4.75,15.75,16.28,15.75a27.76,27.76,0,0,0,10-1.59Z"/><path class="cls-1" d="M500.14,101.33c-16.45,0-23.67-9.5-23.67-23,0-13.29,7.39-22.79,20.77-22.79,13.55,0,19,9.41,19,22.79V81.8H484.13c1.05,7.48,5.89,12.32,16.28,12.32a38.92,38.92,0,0,0,13.37-2.38v7C510.17,100.63,504.63,101.33,500.14,101.33Zm-16.1-26h24.55c-.44-8.19-4.14-12.85-11.7-12.85C488.88,62.44,484.83,67.63,484,75.29Z"/><path class="cls-2" d="M8.17,87.42c-.65,1-1.39,2.29-2,3.26a2,2,0,0,0,.67,2.72l13,8a2,2,0,0,0,2.77-.68c.51-.87,1.18-2,1.91-3.2,5.16-8.51,10.34-7.47,19.67-3l12.89,6.13a2,2,0,0,0,2.69-1l6.19-14A2,2,0,0,0,65,83c-2.72-1.28-8.13-3.83-13-6.18C34.44,68.34,19.55,68.9,8.17,87.42Z"/><path class="cls-3" d="M66.45,55.65c.65-1,1.38-2.29,2-3.27a2,2,0,0,0-.68-2.71l-13-8a2,2,0,0,0-2.77.68c-.52.88-1.19,2-1.92,3.21C44.9,54,39.72,53,30.38,48.56L17.5,42.43a2,2,0,0,0-2.69,1l-6.19,14a2,2,0,0,0,1,2.62c2.73,1.28,8.14,3.84,13,6.18C40.17,74.73,55.06,74.16,66.45,55.65Z"/></svg>